<svg width="500" height="500" viewBox="0 0 500 500" fill="none" xmlns="http://www.w3.org/2000/svg">
<rect width="500" height="500" fill="#272727"/>
<path d="M139.624 361.776C119.036 361.776 103.19 357.381 92.0866 348.59C81.2143 339.569 74.0432 325.111 70.5733 305.217L111.518 299.318C113.137 309.496 116.26 317.014 120.887 321.872C125.513 326.73 131.875 329.159 139.971 329.159C148.299 329.159 154.544 326.499 158.708 321.178C163.103 315.627 165.301 307.646 165.301 297.236V193.487H125.744V160.87H206.593V296.195C206.593 316.783 200.694 332.86 188.896 344.427C177.099 355.993 160.675 361.776 139.624 361.776ZM382.585 359L311.453 268.089L286.817 286.827V359H245.525V160.87H286.817V250.74L375.993 160.87H424.571L339.906 244.841L431.511 359H382.585Z" fill="white"/>
</svg>
