<svg width="468" height="119" viewBox="0 0 468 119" fill="none" xmlns="http://www.w3.org/2000/svg">
<path d="M7.66406 17.6289V16.3281H28.0898V17.6289H26.3672C24.3984 17.6289 22.9805 18.2031 22.1133 19.3516C21.5508 20.1016 21.2695 21.9063 21.2695 24.7656V48.0742C21.2695 51.707 20.8711 54.6133 20.0742 56.793C19.6758 57.8945 19.1367 58.9492 18.457 59.957C17.7773 60.9414 16.9688 61.8203 16.0312 62.5938C15.1172 63.3438 14.0625 63.9414 12.8672 64.3867C11.6953 64.8555 10.4297 65.0898 9.07031 65.0898C7.96875 65.0898 6.97266 64.9375 6.08203 64.6328C5.21484 64.3281 4.47656 63.9297 3.86719 63.4375C3.25781 62.9453 2.78906 62.3828 2.46094 61.75C2.13281 61.0938 1.96875 60.4141 1.96875 59.7109C1.96875 59.0547 2.07422 58.4922 2.28516 58.0234C2.49609 57.5547 2.76562 57.168 3.09375 56.8633C3.44531 56.5586 3.83203 56.3477 4.25391 56.2305C4.69922 56.0898 5.13281 56.0195 5.55469 56.0195C5.90625 56.0195 6.23438 56.0547 6.53906 56.125C6.86719 56.1953 7.19531 56.3945 7.52344 56.7227C7.875 57.0273 8.22656 57.4961 8.57812 58.1289C8.95312 58.7383 9.375 59.5938 9.84375 60.6953C10.3594 61.9609 11.0508 62.5938 11.918 62.5938C12.2227 62.5938 12.5273 62.5117 12.832 62.3477C13.1602 62.1602 13.4414 61.8555 13.6758 61.4336C13.9336 61.0117 14.1328 60.4727 14.2734 59.8164C14.4375 59.1367 14.5195 58.3047 14.5195 57.3203V24.7656C14.5195 23.6406 14.4961 22.7266 14.4492 22.0234C14.4023 21.3203 14.3086 20.7461 14.168 20.3008C14.0508 19.8555 13.8633 19.5039 13.6055 19.2461C13.3477 18.9648 13.0078 18.707 12.5859 18.4727C11.5547 17.9102 10.4883 17.6289 9.38672 17.6289H7.66406ZM46.5469 30.8477C48.8203 30.8477 50.9062 31.293 52.8047 32.1836C54.7031 33.0742 56.332 34.2695 57.6914 35.7695C59.0742 37.2695 60.1406 39.0156 60.8906 41.0078C61.6641 43 62.0508 45.0977 62.0508 47.3008C62.0508 49.6211 61.6523 51.8477 60.8555 53.9805C60.082 56.0898 58.9922 57.9648 57.5859 59.6055C56.1797 61.2461 54.5039 62.5586 52.5586 63.543C50.6133 64.5039 48.4805 64.9844 46.1602 64.9844C43.8867 64.9844 41.8125 64.5156 39.9375 63.5781C38.0859 62.6406 36.4922 61.3984 35.1562 59.8516C33.8203 58.2812 32.7891 56.4883 32.0625 54.4727C31.3359 52.457 30.9727 50.3711 30.9727 48.2148C30.9727 46.0352 31.3477 43.9023 32.0977 41.8164C32.8477 39.7305 33.9023 37.8789 35.2617 36.2617C36.6445 34.6211 38.2852 33.3086 40.1836 32.3242C42.1055 31.3398 44.2266 30.8477 46.5469 30.8477ZM45.457 33.1328C44.4258 33.1328 43.4297 33.3555 42.4688 33.8008C41.5312 34.2227 40.6875 34.9258 39.9375 35.9102C39.2109 36.8711 38.625 38.125 38.1797 39.6719C37.7344 41.1953 37.5117 43.0586 37.5117 45.2617C37.5117 47.5352 37.7461 49.7148 38.2148 51.8008C38.707 53.8867 39.3867 55.7266 40.2539 57.3203C41.1445 58.8906 42.2109 60.1445 43.4531 61.082C44.7188 62.0195 46.125 62.4883 47.6719 62.4883C48.7969 62.4883 49.8281 62.2773 50.7656 61.8555C51.7266 61.4102 52.5586 60.707 53.2617 59.7461C53.9648 58.7617 54.5156 57.4727 54.9141 55.8789C55.3125 54.2852 55.5117 52.3281 55.5117 50.0078C55.5117 47.6875 55.2891 45.5078 54.8438 43.4688C54.3984 41.4297 53.7422 39.6484 52.875 38.125C52.0312 36.5781 50.9766 35.3594 49.7109 34.4688C48.4688 33.5781 47.0508 33.1328 45.457 33.1328ZM76.2539 14.0078V37.5625C77.0039 36.8359 77.7422 36.0742 78.4688 35.2773C79.2188 34.4805 80.0156 33.7539 80.8594 33.0977C81.7031 32.4414 82.6172 31.9023 83.6016 31.4805C84.6094 31.0586 85.7461 30.8477 87.0117 30.8477C88.7227 30.8477 90.1172 31.2227 91.1953 31.9727C92.2734 32.6992 93.1172 33.6836 93.7266 34.9258C94.3359 36.1445 94.7461 37.5391 94.957 39.1094C95.1914 40.6797 95.3086 42.2969 95.3086 43.9609V56.7227C95.3086 57.8008 95.3203 58.7148 95.3438 59.4648C95.3906 60.1914 95.5547 60.7891 95.8359 61.2578C96.1406 61.7031 96.6094 62.043 97.2422 62.2773C97.8984 62.5117 98.8477 62.6641 100.09 62.7344V64H84.2695V62.7344H85.0078C86.0625 62.7344 86.8828 62.6406 87.4688 62.4531C88.0547 62.2656 88.5 61.9492 88.8047 61.5039C89.1094 61.0352 89.2969 60.4141 89.3672 59.6406C89.4375 58.8672 89.4727 57.8945 89.4727 56.7227V43.9609C89.4727 42.9531 89.4492 41.9336 89.4023 40.9023C89.3789 39.8477 89.2148 38.8984 88.9102 38.0547C88.6055 37.1875 88.0898 36.4844 87.3633 35.9453C86.6602 35.3828 85.6406 35.1016 84.3047 35.1016C83.7188 35.1016 83.1328 35.1719 82.5469 35.3125C81.9609 35.4297 81.3398 35.6641 80.6836 36.0156C80.0508 36.3438 79.3711 36.8125 78.6445 37.4219C77.918 38.0078 77.1211 38.7695 76.2539 39.707V56.7227C76.2539 57.8711 76.2773 58.7734 76.3242 59.4297C76.3711 60.0625 76.4531 60.5547 76.5703 60.9062C76.7109 61.2578 76.8867 61.5156 77.0977 61.6797C77.332 61.8438 77.625 62.0195 77.9766 62.207C78.3047 62.3945 78.7617 62.5352 79.3477 62.6289C79.9336 62.6992 80.6367 62.7344 81.457 62.7344V64H65.4961V62.7344C66.3867 62.7344 67.1367 62.6875 67.7461 62.5938C68.3789 62.4766 68.8945 62.2188 69.293 61.8203C69.6914 61.4219 69.9727 60.8242 70.1367 60.0273C70.3242 59.207 70.418 58.1055 70.418 56.7227V27.5781C70.418 23.9453 70.3242 21.6836 70.1367 20.793C69.9727 19.9492 69.7031 19.375 69.3281 19.0703C68.9766 18.7656 68.4961 18.6133 67.8867 18.6133C67.3477 18.6133 66.5508 18.8008 65.4961 19.1758L65.0039 17.9453L74.6367 14.0078H76.2539ZM121.043 59.3594C117.738 61.9375 115.664 63.4141 114.82 63.7891C113.578 64.375 112.23 64.668 110.777 64.668C109.676 64.668 108.656 64.4688 107.719 64.0703C106.781 63.6719 105.973 63.1094 105.293 62.3828C104.613 61.6562 104.074 60.7891 103.676 59.7812C103.301 58.75 103.113 57.6133 103.113 56.3711C103.113 55.457 103.23 54.6133 103.465 53.8398C103.723 53.0664 104.098 52.3398 104.59 51.6602C105.082 50.957 105.703 50.2891 106.453 49.6562C107.227 49.0234 108.129 48.4023 109.16 47.793C111.574 46.3633 115.535 44.6523 121.043 42.6602V41.3945C121.043 39.7773 120.902 38.4297 120.621 37.3516C120.363 36.2734 119.977 35.418 119.461 34.7852C118.969 34.1289 118.348 33.6719 117.598 33.4141C116.848 33.1328 116.004 32.9922 115.066 32.9922C114.316 32.9922 113.637 33.1094 113.027 33.3438C112.441 33.5547 111.938 33.8477 111.516 34.2227C111.094 34.5742 110.766 34.9961 110.531 35.4883C110.32 35.957 110.215 36.4375 110.215 36.9297L110.285 38.9688C110.285 40.0469 110.004 40.8789 109.441 41.4648C108.902 42.0508 108.188 42.3438 107.297 42.3438C106.43 42.3438 105.715 42.0391 105.152 41.4297C104.613 40.8203 104.344 39.9883 104.344 38.9336C104.344 37.9492 104.602 36.9766 105.117 36.0156C105.656 35.0547 106.418 34.1875 107.402 33.4141C108.41 32.6406 109.641 32.0195 111.094 31.5508C112.57 31.082 114.246 30.8477 116.121 30.8477C118.605 30.8477 120.715 31.2109 122.449 31.9375C124.184 32.6641 125.438 33.918 126.211 35.6992C126.633 36.7305 126.844 38.793 126.844 41.8867V52.8203C126.844 54.3672 126.855 55.6094 126.879 56.5469C126.926 57.4844 126.973 58.1289 127.02 58.4805C127.137 59.1602 127.324 59.6172 127.582 59.8516C127.863 60.0859 128.18 60.2031 128.531 60.2031C128.766 60.2031 128.988 60.168 129.199 60.0977C129.41 60.0273 129.656 59.8867 129.938 59.6758C130.219 59.4648 130.547 59.1836 130.922 58.832C131.297 58.457 131.777 57.9766 132.363 57.3906V59.3594C129.715 62.875 127.207 64.6328 124.84 64.6328C123.715 64.6328 122.801 64.2344 122.098 63.4375C121.395 62.6406 121.043 61.2812 121.043 59.3594ZM121.043 57.0742V44.8047C119.262 45.5078 117.797 46.1055 116.648 46.5977C115.523 47.0898 114.703 47.4883 114.188 47.793C112.336 48.8477 111.012 49.9375 110.215 51.0625C109.418 52.1641 109.02 53.3828 109.02 54.7188C109.02 55.5625 109.148 56.3477 109.406 57.0742C109.688 57.7773 110.051 58.3984 110.496 58.9375C110.965 59.4531 111.504 59.8633 112.113 60.168C112.723 60.4492 113.355 60.5898 114.012 60.5898C115.793 60.5898 118.137 59.418 121.043 57.0742ZM144.176 37.668C147.949 33.1211 151.547 30.8477 154.969 30.8477C156.164 30.8477 157.266 31.0469 158.273 31.4453C159.281 31.8438 160.16 32.5117 160.91 33.4492C161.66 34.3867 162.246 35.6289 162.668 37.1758C163.09 38.7227 163.301 40.6562 163.301 42.9766V56.7227C163.301 58.1055 163.371 59.1953 163.512 59.9922C163.676 60.7891 163.945 61.3984 164.32 61.8203C164.695 62.2188 165.199 62.4766 165.832 62.5938C166.465 62.6875 167.262 62.7344 168.223 62.7344V64H152.297V62.7344H152.965C154.02 62.7344 154.84 62.6406 155.426 62.4531C156.035 62.2656 156.492 61.9492 156.797 61.5039C157.102 61.0352 157.289 60.4141 157.359 59.6406C157.453 58.8672 157.5 57.8945 157.5 56.7227V43.5391C157.5 40.6094 157.113 38.4883 156.34 37.1758C155.59 35.8398 154.312 35.1719 152.508 35.1719C149.719 35.1719 146.941 36.6953 144.176 39.7422V56.7227C144.176 58.8555 144.305 60.2031 144.562 60.7656C144.727 61.1172 144.902 61.4219 145.09 61.6797C145.301 61.9375 145.57 62.1484 145.898 62.3125C146.25 62.4531 146.695 62.5586 147.234 62.6289C147.797 62.6992 148.523 62.7344 149.414 62.7344V64H133.488V62.7344H134.191C135.035 62.7344 135.727 62.6406 136.266 62.4531C136.805 62.2656 137.227 61.9375 137.531 61.4688C137.859 61 138.082 60.3906 138.199 59.6406C138.316 58.8672 138.375 57.8945 138.375 56.7227V44.7695C138.375 40.9492 138.281 38.5938 138.094 37.7031C137.93 36.8594 137.66 36.2852 137.285 35.9805C136.934 35.6758 136.453 35.5234 135.844 35.5234C135.188 35.5234 134.402 35.6992 133.488 36.0508L132.961 34.7852L142.664 30.8477H144.176V37.668ZM180.176 37.668C183.949 33.1211 187.547 30.8477 190.969 30.8477C192.164 30.8477 193.266 31.0469 194.273 31.4453C195.281 31.8438 196.16 32.5117 196.91 33.4492C197.66 34.3867 198.246 35.6289 198.668 37.1758C199.09 38.7227 199.301 40.6562 199.301 42.9766V56.7227C199.301 58.1055 199.371 59.1953 199.512 59.9922C199.676 60.7891 199.945 61.3984 200.32 61.8203C200.695 62.2188 201.199 62.4766 201.832 62.5938C202.465 62.6875 203.262 62.7344 204.223 62.7344V64H188.297V62.7344H188.965C190.02 62.7344 190.84 62.6406 191.426 62.4531C192.035 62.2656 192.492 61.9492 192.797 61.5039C193.102 61.0352 193.289 60.4141 193.359 59.6406C193.453 58.8672 193.5 57.8945 193.5 56.7227V43.5391C193.5 40.6094 193.113 38.4883 192.34 37.1758C191.59 35.8398 190.312 35.1719 188.508 35.1719C185.719 35.1719 182.941 36.6953 180.176 39.7422V56.7227C180.176 58.8555 180.305 60.2031 180.562 60.7656C180.727 61.1172 180.902 61.4219 181.09 61.6797C181.301 61.9375 181.57 62.1484 181.898 62.3125C182.25 62.4531 182.695 62.5586 183.234 62.6289C183.797 62.6992 184.523 62.7344 185.414 62.7344V64H169.488V62.7344H170.191C171.035 62.7344 171.727 62.6406 172.266 62.4531C172.805 62.2656 173.227 61.9375 173.531 61.4688C173.859 61 174.082 60.3906 174.199 59.6406C174.316 58.8672 174.375 57.8945 174.375 56.7227V44.7695C174.375 40.9492 174.281 38.5938 174.094 37.7031C173.93 36.8594 173.66 36.2852 173.285 35.9805C172.934 35.6758 172.453 35.5234 171.844 35.5234C171.188 35.5234 170.402 35.6992 169.488 36.0508L168.961 34.7852L178.664 30.8477H180.176V37.668ZM212.203 43.9258C212.203 46.3164 212.52 48.4609 213.152 50.3594C213.785 52.2578 214.641 53.875 215.719 55.2109C216.797 56.5234 218.039 57.5312 219.445 58.2344C220.875 58.9141 222.375 59.2539 223.945 59.2539C226.055 59.2539 227.883 58.6797 229.43 57.5312C231 56.3594 232.312 54.3672 233.367 51.5547L234.457 52.2578C234.199 53.8281 233.707 55.375 232.98 56.8984C232.254 58.4219 231.316 59.7812 230.168 60.9766C229.043 62.1719 227.719 63.1445 226.195 63.8945C224.695 64.6211 223.055 64.9844 221.273 64.9844C219.352 64.9844 217.535 64.5977 215.824 63.8242C214.137 63.0273 212.648 61.9141 211.359 60.4844C210.094 59.0312 209.086 57.2852 208.336 55.2461C207.586 53.1836 207.211 50.875 207.211 48.3203C207.211 45.5312 207.586 43.0586 208.336 40.9023C209.109 38.7227 210.164 36.8828 211.5 35.3828C212.836 33.8828 214.406 32.7461 216.211 31.9727C218.039 31.1992 219.996 30.8125 222.082 30.8125C223.863 30.8125 225.504 31.1289 227.004 31.7617C228.527 32.3711 229.84 33.25 230.941 34.3984C232.043 35.5469 232.898 36.9297 233.508 38.5469C234.141 40.1406 234.457 41.9336 234.457 43.9258H212.203ZM212.203 41.8867H227.109C227.016 39.8242 226.77 38.3711 226.371 37.5273C225.785 36.2148 224.906 35.1836 223.734 34.4336C222.586 33.6836 221.379 33.3086 220.113 33.3086C219.152 33.3086 218.227 33.5078 217.336 33.9062C216.445 34.2812 215.637 34.8438 214.91 35.5938C214.184 36.3203 213.574 37.2109 213.082 38.2656C212.613 39.3203 212.32 40.5273 212.203 41.8867ZM259.594 30.8477V41.8164H258.434C257.988 40.082 257.484 38.6523 256.922 37.5273C256.359 36.3789 255.715 35.4648 254.988 34.7852C254.285 34.1055 253.488 33.625 252.598 33.3438C251.73 33.0625 250.758 32.9219 249.68 32.9219C248.859 32.9219 248.109 33.0508 247.43 33.3086C246.773 33.543 246.199 33.8594 245.707 34.2578C245.238 34.6328 244.863 35.0781 244.582 35.5938C244.324 36.0859 244.195 36.5898 244.195 37.1055C244.195 37.7617 244.289 38.3711 244.477 38.9336C244.664 39.4961 245.051 40.082 245.637 40.6914C246.246 41.2773 247.102 41.9102 248.203 42.5898C249.328 43.2695 250.828 44.0664 252.703 44.9805C254.438 45.8242 255.891 46.6562 257.062 47.4766C258.258 48.2969 259.219 49.1172 259.945 49.9375C260.695 50.7578 261.223 51.6133 261.527 52.5039C261.855 53.3711 262.02 54.2734 262.02 55.2109C262.02 56.6875 261.703 58.0352 261.07 59.2539C260.461 60.4492 259.652 61.4688 258.645 62.3125C257.637 63.1562 256.488 63.8125 255.199 64.2812C253.91 64.75 252.598 64.9844 251.262 64.9844C250.277 64.9844 249.223 64.9023 248.098 64.7383C246.973 64.5742 245.777 64.3047 244.512 63.9297C244.113 63.8125 243.762 63.7305 243.457 63.6836C243.152 63.6133 242.871 63.5781 242.613 63.5781C242.098 63.5781 241.676 63.8828 241.348 64.4922H240.188V52.9961H241.348C241.676 54.6367 242.168 56.0781 242.824 57.3203C243.48 58.5625 244.242 59.5938 245.109 60.4141C246 61.2344 246.973 61.8555 248.027 62.2773C249.105 62.6992 250.207 62.9102 251.332 62.9102C252.129 62.9102 252.855 62.7812 253.512 62.5234C254.191 62.2656 254.777 61.9258 255.27 61.5039C255.762 61.0586 256.137 60.543 256.395 59.957C256.676 59.3711 256.816 58.7383 256.816 58.0586C256.816 57.2617 256.699 56.5469 256.465 55.9141C256.23 55.2578 255.797 54.625 255.164 54.0156C254.531 53.4062 253.664 52.7734 252.562 52.1172C251.461 51.4375 250.043 50.6641 248.309 49.7969C246.574 48.9531 245.168 48.168 244.09 47.4414C243.035 46.7148 242.203 45.9883 241.594 45.2617C240.984 44.5117 240.574 43.7383 240.363 42.9414C240.152 42.1211 240.047 41.1953 240.047 40.1641C240.047 38.8516 240.281 37.6328 240.75 36.5078C241.242 35.3594 241.922 34.375 242.789 33.5547C243.656 32.7109 244.688 32.0547 245.883 31.5859C247.078 31.0938 248.391 30.8477 249.82 30.8477C250.266 30.8477 250.84 30.918 251.543 31.0586C252.246 31.1992 252.949 31.3516 253.652 31.5156C254.379 31.6797 255.035 31.832 255.621 31.9727C256.207 32.1133 256.605 32.1836 256.816 32.1836C257.191 32.1836 257.484 32.1016 257.695 31.9375C257.906 31.7734 258.152 31.4102 258.434 30.8477H259.594ZM304.102 37.5625L321.68 55.0352C324.562 57.918 327.023 59.8867 329.062 60.9414C331.125 61.9727 333.164 62.5586 335.18 62.6992V64H312.504V62.6992C313.863 62.6992 314.836 62.4766 315.422 62.0312C316.031 61.5625 316.336 61.0469 316.336 60.4844C316.336 60.2031 316.324 59.957 316.301 59.7461C316.277 59.5117 316.184 59.2656 316.02 59.0078C315.879 58.75 315.633 58.4219 315.281 58.0234C314.953 57.625 314.461 57.1094 313.805 56.4766L297.352 40.1992V55.5625C297.352 56.6875 297.375 57.6016 297.422 58.3047C297.469 59.0078 297.551 59.582 297.668 60.0273C297.809 60.4727 298.008 60.8359 298.266 61.1172C298.523 61.375 298.863 61.6211 299.285 61.8555C300.293 62.418 301.359 62.6992 302.484 62.6992H304.102V64H283.781V62.6992H285.469C287.461 62.6992 288.891 62.125 289.758 60.9766C290.32 60.25 290.602 58.4453 290.602 55.5625V24.7656C290.602 23.6875 290.578 22.7969 290.531 22.0938C290.508 21.3906 290.426 20.8164 290.285 20.3711C290.145 19.9023 289.945 19.5273 289.688 19.2461C289.453 18.9648 289.125 18.707 288.703 18.4727C287.672 17.9102 286.594 17.6289 285.469 17.6289H283.781V16.3281H304.102V17.6289H302.484C302.039 17.6289 301.57 17.6758 301.078 17.7695C300.609 17.8633 300.152 18.0156 299.707 18.2266C299.285 18.4141 298.898 18.6719 298.547 19C298.195 19.3047 297.938 19.6797 297.773 20.125C297.492 20.875 297.352 22.4219 297.352 24.7656V39.3555C298.266 38.6055 299.309 37.6914 300.48 36.6133C301.652 35.5352 302.848 34.3984 304.066 33.2031C305.309 32.0078 306.527 30.8125 307.723 29.6172C308.941 28.4219 310.043 27.3203 311.027 26.3125C312.012 25.2813 312.832 24.3906 313.488 23.6406C314.168 22.8906 314.602 22.3867 314.789 22.1289C315.422 21.1914 315.738 20.3711 315.738 19.668C315.738 19.1289 315.492 18.6602 315 18.2617C314.531 17.8398 313.699 17.6289 312.504 17.6289H311.414V16.3281H328.922V17.6289C327.891 17.6758 326.953 17.8164 326.109 18.0508C325.688 18.1914 325.219 18.3789 324.703 18.6133C324.188 18.8477 323.613 19.1641 322.98 19.5625C322.371 19.9609 321.691 20.4531 320.941 21.0391C320.215 21.6016 319.406 22.293 318.516 23.1133L304.102 37.5625ZM346.289 30.8477V38.0898C349.008 33.2617 351.773 30.8477 354.586 30.8477C355.219 30.8477 355.805 30.9531 356.344 31.1641C356.883 31.375 357.352 31.668 357.75 32.043C358.172 32.3945 358.488 32.8047 358.699 33.2734C358.934 33.7422 359.051 34.2344 359.051 34.75C359.051 35.6641 358.746 36.4375 358.137 37.0703C357.527 37.7031 356.801 38.0195 355.957 38.0195C355.559 38.0195 355.113 37.8906 354.621 37.6328C354.129 37.375 353.637 37.1055 353.145 36.8242C352.676 36.5195 352.242 36.2383 351.844 35.9805C351.445 35.7227 351.141 35.5938 350.93 35.5938C350.625 35.5938 350.285 35.7344 349.91 36.0156C349.535 36.2734 349.148 36.6484 348.75 37.1406C348.352 37.6094 347.941 38.1836 347.52 38.8633C347.098 39.5195 346.688 40.2461 346.289 41.043V56.4766C346.289 57.4375 346.348 58.3047 346.465 59.0781C346.582 59.8516 346.828 60.5078 347.203 61.0469C347.602 61.5859 348.176 62.0078 348.926 62.3125C349.676 62.5938 350.672 62.7344 351.914 62.7344V64H335.426V62.7344C336.457 62.7344 337.301 62.6641 337.957 62.5234C338.613 62.3828 339.129 62.1016 339.504 61.6797C339.879 61.2578 340.137 60.6602 340.277 59.8867C340.418 59.0898 340.488 58.0469 340.488 56.7578V44.2773C340.488 40.4805 340.406 38.2539 340.242 37.5977C339.938 36.2148 339.152 35.5234 337.887 35.5234C337.16 35.5234 336.34 35.6992 335.426 36.0508L335.074 34.7852L344.812 30.8477H346.289ZM369.035 14.0078C369.527 14.0078 369.984 14.1016 370.406 14.2891C370.852 14.4766 371.227 14.7344 371.531 15.0625C371.859 15.3672 372.117 15.7422 372.305 16.1875C372.492 16.6094 372.586 17.0664 372.586 17.5586C372.586 18.0508 372.492 18.5195 372.305 18.9648C372.117 19.3867 371.859 19.7617 371.531 20.0898C371.227 20.418 370.852 20.6758 370.406 20.8633C369.984 21.0508 369.527 21.1445 369.035 21.1445C368.543 21.1445 368.074 21.0508 367.629 20.8633C367.207 20.6758 366.832 20.418 366.504 20.0898C366.176 19.7617 365.918 19.3867 365.73 18.9648C365.543 18.5195 365.449 18.0508 365.449 17.5586C365.449 17.0664 365.543 16.6094 365.73 16.1875C365.918 15.7422 366.164 15.3672 366.469 15.0625C366.797 14.7344 367.184 14.4766 367.629 14.2891C368.074 14.1016 368.543 14.0078 369.035 14.0078ZM371.953 30.8477V56.7227C371.953 57.7539 371.988 58.5977 372.059 59.2539C372.129 59.8867 372.234 60.4023 372.375 60.8008C372.516 61.1992 372.691 61.5039 372.902 61.7148C373.137 61.9023 373.395 62.0781 373.676 62.2422C374.285 62.5703 375.34 62.7344 376.84 62.7344V64H361.195V62.7344C361.992 62.7344 362.637 62.6992 363.129 62.6289C363.645 62.5586 364.055 62.4414 364.359 62.2773C364.688 62.1133 364.934 61.9141 365.098 61.6797C365.285 61.4219 365.461 61.1172 365.625 60.7656C365.953 60.0391 366.117 58.6914 366.117 56.7227V44.3125C366.117 42.2734 366.082 40.668 366.012 39.4961C365.941 38.3242 365.812 37.4453 365.625 36.8594C365.461 36.2734 365.203 35.9102 364.852 35.7695C364.523 35.6055 364.102 35.5234 363.586 35.5234C362.93 35.5234 362.133 35.6992 361.195 36.0508L360.703 34.7852L370.406 30.8477H371.953ZM408.234 51.7656C407.789 53.8984 407.121 55.7852 406.23 57.4258C405.34 59.0664 404.297 60.4492 403.102 61.5742C401.906 62.6992 400.594 63.543 399.164 64.1055C397.734 64.6914 396.258 64.9844 394.734 64.9844C392.93 64.9844 391.207 64.5859 389.566 63.7891C387.926 62.9922 386.473 61.8555 385.207 60.3789C383.965 58.9023 382.969 57.1211 382.219 55.0352C381.469 52.9258 381.094 50.5586 381.094 47.9336C381.094 45.4023 381.504 43.0938 382.324 41.0078C383.145 38.8984 384.246 37.0938 385.629 35.5938C387.035 34.0938 388.664 32.9336 390.516 32.1133C392.391 31.2695 394.371 30.8477 396.457 30.8477C398.027 30.8477 399.469 31.082 400.781 31.5508C402.117 32.0195 403.266 32.6289 404.227 33.3789C405.188 34.1289 405.938 34.9609 406.477 35.875C407.039 36.7891 407.32 37.6914 407.32 38.582C407.32 39.4727 407.039 40.1992 406.477 40.7617C405.914 41.3008 405.105 41.5703 404.051 41.5703C403.512 41.5703 403.008 41.5117 402.539 41.3945C402.094 41.2773 401.695 41.0664 401.344 40.7617C401.016 40.457 400.746 40.0352 400.535 39.4961C400.324 38.957 400.184 38.2656 400.113 37.4219C399.996 36.0391 399.527 34.9961 398.707 34.293C397.91 33.5664 396.773 33.2031 395.297 33.2031C393.914 33.2031 392.695 33.5195 391.641 34.1523C390.586 34.7617 389.695 35.6055 388.969 36.6836C388.242 37.7383 387.691 38.9805 387.316 40.4102C386.965 41.8164 386.789 43.3164 386.789 44.9102C386.789 46.7852 387.023 48.6016 387.492 50.3594C387.984 52.0938 388.676 53.6406 389.566 55C390.48 56.3594 391.582 57.4492 392.871 58.2695C394.16 59.0898 395.625 59.5 397.266 59.5C398.25 59.5 399.188 59.3828 400.078 59.1484C400.969 58.8906 401.824 58.457 402.645 57.8477C403.465 57.2383 404.25 56.4062 405 55.3516C405.773 54.2734 406.512 52.9141 407.215 51.2734L408.234 51.7656ZM422.402 14.0078V45.9648L430.594 38.582C431.344 37.9023 431.941 37.3516 432.387 36.9297C432.832 36.5078 433.16 36.168 433.371 35.9102C433.605 35.6289 433.746 35.4062 433.793 35.2422C433.863 35.0781 433.898 34.9023 433.898 34.7148C433.898 34.2461 433.699 33.8477 433.301 33.5195C432.926 33.168 432.293 32.9688 431.402 32.9219V31.7969H445.395V32.9219C444.41 32.9453 443.531 33.0273 442.758 33.168C442.008 33.2852 441.281 33.4844 440.578 33.7656C439.898 34.0469 439.219 34.4336 438.539 34.9258C437.883 35.3945 437.168 35.9805 436.395 36.6836L428.133 44.3125L436.395 54.7539C438.668 57.6367 440.215 59.4648 441.035 60.2383C441.551 60.7539 441.996 61.1758 442.371 61.5039C442.77 61.8086 443.168 62.0547 443.566 62.2422C443.988 62.4297 444.457 62.5586 444.973 62.6289C445.512 62.6992 446.203 62.7344 447.047 62.7344V64H431.402V62.7344C432.293 62.7109 432.891 62.582 433.195 62.3477C433.523 62.0898 433.688 61.7383 433.688 61.293C433.688 60.7305 433.219 59.8633 432.281 58.6914L422.402 46.1758V56.7578C422.402 57.8359 422.438 58.7031 422.508 59.3594C422.578 60.0156 422.684 60.543 422.824 60.9414C422.965 61.3164 423.141 61.5977 423.352 61.7852C423.562 61.9727 423.809 62.1367 424.09 62.2773C424.582 62.5352 425.754 62.6875 427.605 62.7344V64H411.223V62.7344C412.324 62.7344 413.215 62.6641 413.895 62.5234C414.598 62.3828 415.148 62.1133 415.547 61.7148C415.945 61.293 416.215 60.707 416.355 59.957C416.496 59.1836 416.566 58.1758 416.566 56.9336V27.6133C416.566 25.7383 416.543 24.2383 416.496 23.1133C416.473 21.9648 416.414 21.1914 416.32 20.793C416.133 19.9492 415.852 19.375 415.477 19.0703C415.125 18.7422 414.645 18.5781 414.035 18.5781C413.566 18.5781 412.828 18.7773 411.82 19.1758L411.223 17.9453L420.785 14.0078H422.402ZM459.949 14.0078V56.7227C459.949 57.7539 459.984 58.5977 460.055 59.2539C460.125 59.8867 460.23 60.4023 460.371 60.8008C460.512 61.1758 460.688 61.4688 460.898 61.6797C461.133 61.8906 461.414 62.0781 461.742 62.2422C462.305 62.5703 463.441 62.7344 465.152 62.7344V64H449.367V62.7344C450.422 62.7344 451.254 62.6523 451.863 62.4883C452.496 62.3242 452.977 62.0195 453.305 61.5742C453.656 61.1289 453.879 60.5195 453.973 59.7461C454.066 58.9727 454.113 57.9648 454.113 56.7227V27.4727C454.113 25.6445 454.09 24.1797 454.043 23.0781C454.02 21.9531 453.961 21.1914 453.867 20.793C453.68 19.9492 453.41 19.375 453.059 19.0703C452.707 18.7656 452.25 18.6133 451.688 18.6133C451.055 18.6133 450.281 18.8008 449.367 19.1758L448.77 17.9453L458.367 14.0078H459.949Z" fill="black"/>
<path d="M14.5371 106L14.7129 104.242H18.7031C21.3047 104.242 22.6055 103.223 22.6055 101.184C22.6055 99.0156 21.1348 97.9316 18.1934 97.9316H14.7129V96.4902H18.334C23.3379 96.4902 25.8398 97.9258 25.8398 100.797C25.8398 102.391 25.1602 103.656 23.8008 104.594C22.4531 105.531 20.6367 106 18.3516 106H14.5371ZM13.2891 105.736V88.8438H16.2422V105.736H13.2891ZM14.2031 97.3867L14.5371 96.3496H18.5098C20.6309 96.3496 21.6914 95.3301 21.6914 93.291C21.6914 91.334 20.6777 90.3555 18.6504 90.3555H14.4492V88.5977H18.8086C20.7539 88.5977 22.248 88.9727 23.291 89.7227C24.334 90.4609 24.8555 91.5215 24.8555 92.9043C24.8555 94.3457 24.2871 95.4531 23.1504 96.2266C22.0137 97 20.3789 97.3867 18.2461 97.3867H14.2031ZM11.3203 106L11.4082 104.875C12.0176 104.629 12.7617 104.4 13.6406 104.189L13.2891 105.508V103.047H16.2422V105.508L15.9434 104.33L18.2812 104.84L18.1934 106H11.3203ZM18.2109 88.5977L18.123 89.7227C17.5137 89.9688 16.7695 90.1973 15.8906 90.4082L16.2422 89.0898V91.5508H13.2891V89.0898L13.5879 90.2676L11.25 89.7578L11.3379 88.5977H18.2109ZM36.6152 88.4922L42.3984 104.857L41.625 104.348L43.9277 104.84L43.8398 106H37.2656L37.3535 104.805C37.9277 104.559 38.625 104.354 39.4453 104.189L39.2168 104.682L34.2949 89.7051L33.6973 88.5801C34.1074 88.5215 34.5762 88.4863 35.1035 88.4746C35.6309 88.4629 36.1348 88.4688 36.6152 88.4922ZM35.5605 88.5977L30.1465 104.857L30.0234 104.33L32.168 104.84L32.0801 106H26.543L26.6309 104.875C26.9238 104.723 27.252 104.594 27.6152 104.488C27.9785 104.371 28.3535 104.277 28.7402 104.207L27.9492 104.857L33.6973 88.5801L35.5605 88.5977ZM30.5859 101.061L31.166 99.373H38.6367L39.2344 101.061H30.5859ZM47.4961 106.246C46.9102 106.246 46.4414 106.076 46.0898 105.736C45.7383 105.396 45.5625 104.934 45.5625 104.348C45.5625 103.762 45.7383 103.299 46.0898 102.959C46.4414 102.619 46.9102 102.449 47.4961 102.449C48.082 102.449 48.5508 102.619 48.9023 102.959C49.2539 103.299 49.4297 103.762 49.4297 104.348C49.4297 104.934 49.2539 105.396 48.9023 105.736C48.5508 106.076 48.082 106.246 47.4961 106.246ZM67.5527 105.297L61.3125 88.5977H64.3359L69.7676 103.768L69.8379 105.227C69.498 105.273 69.1289 105.303 68.7305 105.314C68.3438 105.326 67.9512 105.32 67.5527 105.297ZM57.6562 106L57.7441 104.875C58.3535 104.594 59.0625 104.365 59.8711 104.189L59.4492 105.367L60.4863 89.4062L60.75 90.2676L58.2891 89.7578L58.377 88.5977H62.5781L61.6641 105.332L61.3828 104.33L63.9316 104.84L63.8438 106H57.6562ZM69.8379 105.227L68.0625 104.84L73.793 88.5977H76.043L69.8379 105.227ZM73.5293 106L73.6172 104.875C73.9453 104.734 74.3203 104.611 74.7422 104.506C75.1641 104.389 75.5918 104.289 76.0254 104.207L75.7266 105.244L74.8301 88.5977H79.7168L79.6289 89.7227C78.9844 89.9922 78.2051 90.2148 77.291 90.3906L77.5898 89.5645L78.627 105.191L78.293 104.33L80.5078 104.84L80.4199 106H73.5293ZM89.5078 104.102C89.5078 103.129 89.5195 102.139 89.543 101.131C89.5664 100.111 89.5781 99.1562 89.5781 98.2656V96.7188C89.5781 95.0547 88.7695 94.2227 87.1523 94.2227C86.0859 94.2227 85.1016 94.5625 84.1992 95.2422L83.0742 96.666C83.0391 95.6699 83.0977 94.75 83.25 93.9062C84.8203 93.0273 86.4785 92.5879 88.2246 92.5879C90.9785 92.5879 92.3555 93.9004 92.3555 96.5254C92.3555 96.8652 92.3496 97.3574 92.3379 98.002C92.3262 98.6465 92.3145 99.3438 92.3027 100.094C92.291 100.832 92.2793 101.529 92.2676 102.186C92.2559 102.83 92.25 103.328 92.25 103.68L89.5078 104.102ZM83.0742 96.666L83.3203 94.6621L86.0098 93.6426L84.5684 96.666H83.0742ZM85.9043 106.264C84.791 106.264 83.9062 105.947 83.25 105.314C82.5938 104.67 82.2656 103.809 82.2656 102.73C82.2656 100.398 83.959 98.875 87.3457 98.1602L90.2109 97.5625L90.3867 99.0742L87.873 99.3906C86.9004 99.5078 86.1973 99.7715 85.7637 100.182C85.3418 100.592 85.1309 101.189 85.1309 101.975C85.1309 103.521 85.7988 104.295 87.1348 104.295C88.0723 104.295 89.1621 103.855 90.4043 102.977L90.7207 103.609C89.3027 105.379 87.6973 106.264 85.9043 106.264ZM90.2109 106.053L89.6133 103.768L92.25 103.012V104.928L91.8633 104.225L94.0078 104.84L93.9199 105.859C92.959 106.012 91.7227 106.076 90.2109 106.053ZM105.645 105.895V97.0352C105.645 95.4297 104.871 94.627 103.324 94.627C102.105 94.627 100.875 95.1191 99.6328 96.1035L99.2812 95.2246C99.9961 94.3809 100.816 93.7305 101.742 93.2734C102.668 92.8164 103.641 92.5879 104.66 92.5879C105.879 92.5879 106.816 92.9277 107.473 93.6074C108.129 94.2754 108.457 95.2363 108.457 96.4902V105.895H105.645ZM97.6992 105.895V94.1523L100.512 94.8906V105.895H97.6992ZM95.9062 106L95.9941 104.945C96.334 104.781 96.6738 104.646 97.0137 104.541C97.3535 104.436 97.6934 104.342 98.0332 104.26L97.6992 105.561V103.152H100.512V105.561L100.23 104.4L102.375 104.91L102.287 106H95.9062ZM104.168 106L104.256 104.875C104.502 104.758 104.766 104.646 105.047 104.541C105.328 104.436 105.639 104.342 105.979 104.26L105.645 105.561V103.152H108.457V105.561L108.176 104.4L110.32 104.91L110.232 106H104.168ZM97.6992 97.0527V94.8027L98.1211 95.5762L95.6953 94.416L95.7656 93.6777C96.2812 93.4551 96.8789 93.2617 97.5586 93.0977C98.2383 92.9219 98.9648 92.7988 99.7383 92.7285L100.406 95.5234L97.6992 97.0527ZM119.285 104.102C119.285 103.129 119.297 102.139 119.32 101.131C119.344 100.111 119.355 99.1562 119.355 98.2656V96.7188C119.355 95.0547 118.547 94.2227 116.93 94.2227C115.863 94.2227 114.879 94.5625 113.977 95.2422L112.852 96.666C112.816 95.6699 112.875 94.75 113.027 93.9062C114.598 93.0273 116.256 92.5879 118.002 92.5879C120.756 92.5879 122.133 93.9004 122.133 96.5254C122.133 96.8652 122.127 97.3574 122.115 98.002C122.104 98.6465 122.092 99.3438 122.08 100.094C122.068 100.832 122.057 101.529 122.045 102.186C122.033 102.83 122.027 103.328 122.027 103.68L119.285 104.102ZM112.852 96.666L113.098 94.6621L115.787 93.6426L114.346 96.666H112.852ZM115.682 106.264C114.568 106.264 113.684 105.947 113.027 105.314C112.371 104.67 112.043 103.809 112.043 102.73C112.043 100.398 113.736 98.875 117.123 98.1602L119.988 97.5625L120.164 99.0742L117.65 99.3906C116.678 99.5078 115.975 99.7715 115.541 100.182C115.119 100.592 114.908 101.189 114.908 101.975C114.908 103.521 115.576 104.295 116.912 104.295C117.85 104.295 118.939 103.855 120.182 102.977L120.498 103.609C119.08 105.379 117.475 106.264 115.682 106.264ZM119.988 106.053L119.391 103.768L122.027 103.012V104.928L121.641 104.225L123.785 104.84L123.697 105.859C122.736 106.012 121.5 106.076 119.988 106.053ZM130.975 101.869C129.393 101.869 128.133 101.453 127.195 100.621C126.258 99.7891 125.789 98.6641 125.789 97.2461C125.789 95.8164 126.258 94.6855 127.195 93.8535C128.133 93.0098 129.404 92.5879 131.01 92.5879C131.936 92.5879 132.785 92.7871 133.559 93.1855C134.344 93.584 134.977 94.1348 135.457 94.8379C135.938 95.5293 136.178 96.3203 136.178 97.2109C136.178 98.6406 135.709 99.7773 134.771 100.621C133.834 101.453 132.568 101.869 130.975 101.869ZM131.203 100.393C132.645 100.393 133.365 99.4434 133.365 97.5449C133.365 95.2246 132.498 94.0645 130.764 94.0645C129.322 94.0645 128.602 95.0195 128.602 96.9297C128.602 98.043 128.824 98.8984 129.27 99.4961C129.727 100.094 130.371 100.393 131.203 100.393ZM137.584 94.6797L133.559 94.4688L131.01 92.5879C131.561 92.5879 131.988 92.623 132.293 92.6934C132.598 92.752 132.879 92.8164 133.137 92.8867C133.395 92.957 133.729 92.9922 134.139 92.9922C134.432 92.9922 134.889 92.9746 135.51 92.9395C136.143 92.8926 136.893 92.8281 137.76 92.7461L137.584 94.6797ZM130.764 112.152C129.064 112.152 127.705 111.83 126.686 111.186C125.678 110.553 125.174 109.697 125.174 108.619C125.174 107.295 126.023 106.217 127.723 105.385L128.707 105.947C127.98 106.521 127.617 107.219 127.617 108.039C127.617 108.859 127.939 109.486 128.584 109.92C129.229 110.354 130.148 110.57 131.344 110.57C132.609 110.57 133.611 110.336 134.35 109.867C135.1 109.41 135.475 108.789 135.475 108.004C135.475 107.184 134.924 106.773 133.822 106.773H129.814C128.795 106.773 128.01 106.545 127.459 106.088C126.908 105.631 126.633 104.969 126.633 104.102C126.633 102.695 127.418 101.6 128.988 100.814L130.061 100.99C129.193 101.635 128.76 102.332 128.76 103.082C128.76 103.879 129.311 104.277 130.412 104.277H134.42C135.592 104.277 136.488 104.529 137.109 105.033C137.742 105.537 138.059 106.252 138.059 107.178C138.059 108.139 137.742 108.994 137.109 109.744C136.488 110.494 135.627 111.08 134.525 111.502C133.436 111.936 132.182 112.152 130.764 112.152ZM145.846 106.281C143.725 106.281 142.09 105.707 140.941 104.559C139.793 103.41 139.219 101.77 139.219 99.6367C139.219 97.4805 139.781 95.7637 140.906 94.4863C142.031 93.209 143.549 92.5703 145.459 92.5703C147.17 92.5703 148.488 93.1094 149.414 94.1875C150.34 95.2539 150.803 96.7891 150.803 98.793C150.803 98.9688 150.797 99.1445 150.785 99.3203C150.773 99.4961 150.756 99.666 150.732 99.8301L147.779 99.2676C147.779 97.4746 147.562 96.1797 147.129 95.3828C146.707 94.5859 146.016 94.1875 145.055 94.1875C143.18 94.1875 142.242 95.6699 142.242 98.6348C142.242 102.373 143.736 104.242 146.725 104.242C147.896 104.242 149.121 104.002 150.398 103.521L150.275 105.174C149.725 105.525 149.062 105.801 148.289 106C147.527 106.188 146.713 106.281 145.846 106.281ZM140.361 99.8301V98.3887H150.451L150.732 99.8301H140.361ZM170.262 105.895V97.0352C170.262 95.4297 169.506 94.627 167.994 94.627C166.846 94.627 165.639 95.1191 164.373 96.1035L164.021 95.2246C165.521 93.4668 167.291 92.5879 169.33 92.5879C170.525 92.5879 171.445 92.9277 172.09 93.6074C172.746 94.2754 173.074 95.2363 173.074 96.4902V105.895H170.262ZM152.895 106L152.982 104.945C153.322 104.781 153.662 104.646 154.002 104.541C154.342 104.436 154.682 104.342 155.021 104.26L154.688 105.561V103.152H157.5V105.561L157.219 104.4L159.293 104.91L159.205 106H152.895ZM154.688 105.895V94.1523L157.5 94.8906V105.895H154.688ZM160.98 106L161.068 104.875C161.314 104.758 161.578 104.646 161.859 104.541C162.141 104.436 162.451 104.342 162.791 104.26L162.457 105.561V103.152H165.27V105.561L164.988 104.4L167.062 104.91L166.975 106H160.98ZM162.457 105.895V97.0352C162.457 95.4297 161.713 94.627 160.225 94.627C159.064 94.627 157.863 95.1191 156.621 96.1035L156.27 95.2246C157.758 93.4668 159.516 92.5879 161.543 92.5879C162.727 92.5879 163.641 92.916 164.285 93.5723C164.941 94.2168 165.27 95.166 165.27 96.4199V105.895H162.457ZM154.688 97.0527V94.8027L155.109 95.5762L152.684 94.416L152.754 93.6777C153.27 93.4551 153.867 93.2617 154.547 93.0977C155.227 92.9219 155.953 92.7988 156.727 92.7285L157.395 95.5234L154.688 97.0527ZM168.785 106L168.873 104.875C169.119 104.758 169.383 104.646 169.664 104.541C169.945 104.436 170.256 104.342 170.596 104.26L170.262 105.561V103.152H173.074V105.561L172.793 104.4L174.938 104.91L174.85 106H168.785ZM183.393 106.281C181.271 106.281 179.637 105.707 178.488 104.559C177.34 103.41 176.766 101.77 176.766 99.6367C176.766 97.4805 177.328 95.7637 178.453 94.4863C179.578 93.209 181.096 92.5703 183.006 92.5703C184.717 92.5703 186.035 93.1094 186.961 94.1875C187.887 95.2539 188.35 96.7891 188.35 98.793C188.35 98.9688 188.344 99.1445 188.332 99.3203C188.32 99.4961 188.303 99.666 188.279 99.8301L185.326 99.2676C185.326 97.4746 185.109 96.1797 184.676 95.3828C184.254 94.5859 183.562 94.1875 182.602 94.1875C180.727 94.1875 179.789 95.6699 179.789 98.6348C179.789 102.373 181.283 104.242 184.271 104.242C185.443 104.242 186.668 104.002 187.945 103.521L187.822 105.174C187.271 105.525 186.609 105.801 185.836 106C185.074 106.188 184.26 106.281 183.393 106.281ZM177.908 99.8301V98.3887H187.998L188.279 99.8301H177.908ZM200.18 105.895V97.0352C200.18 95.4297 199.406 94.627 197.859 94.627C196.641 94.627 195.41 95.1191 194.168 96.1035L193.816 95.2246C194.531 94.3809 195.352 93.7305 196.277 93.2734C197.203 92.8164 198.176 92.5879 199.195 92.5879C200.414 92.5879 201.352 92.9277 202.008 93.6074C202.664 94.2754 202.992 95.2363 202.992 96.4902V105.895H200.18ZM192.234 105.895V94.1523L195.047 94.8906V105.895H192.234ZM190.441 106L190.529 104.945C190.869 104.781 191.209 104.646 191.549 104.541C191.889 104.436 192.229 104.342 192.568 104.26L192.234 105.561V103.152H195.047V105.561L194.766 104.4L196.91 104.91L196.822 106H190.441ZM198.703 106L198.791 104.875C199.037 104.758 199.301 104.646 199.582 104.541C199.863 104.436 200.174 104.342 200.514 104.26L200.18 105.561V103.152H202.992V105.561L202.711 104.4L204.855 104.91L204.768 106H198.703ZM192.234 97.0527V94.8027L192.656 95.5762L190.23 94.416L190.301 93.6777C190.816 93.4551 191.414 93.2617 192.094 93.0977C192.773 92.9219 193.5 92.7988 194.273 92.7285L194.941 95.5234L192.234 97.0527ZM211.447 106.211C209.08 106.211 207.896 105.01 207.896 102.607V94.1348L208.055 92.8867L208.705 89.5469H210.709V102.08C210.709 102.854 210.85 103.416 211.131 103.768C211.424 104.107 211.893 104.277 212.537 104.277C213.064 104.277 213.738 104.178 214.559 103.979L214.453 105.49C213.586 105.971 212.584 106.211 211.447 106.211ZM205.682 94.5742L205.805 93.168C206.484 93.0039 207.234 92.9102 208.055 92.8867H214.488L214.348 94.5742H205.682ZM235.266 106L226.037 96.7363C224.666 95.3535 223.98 93.9473 223.98 92.5176C223.98 91.2285 224.443 90.2031 225.369 89.4414C226.295 88.668 227.543 88.2812 229.113 88.2812C230.566 88.2812 231.727 88.6152 232.594 89.2832C233.461 89.9395 233.895 90.8301 233.895 91.9551C233.895 93.0801 233.449 94.0996 232.559 95.0137C231.668 95.916 230.396 96.6426 228.744 97.1934L227.689 96.4551C230.021 95.3887 231.188 94 231.188 92.2891C231.188 91.5391 230.971 90.9531 230.537 90.5312C230.115 90.1094 229.523 89.8984 228.762 89.8984C227.379 89.8984 226.688 90.625 226.688 92.0781C226.688 92.6875 226.822 93.25 227.092 93.7656C227.361 94.2812 227.836 94.8848 228.516 95.5762L237.779 104.91L236.531 104.383L238.764 104.822L238.676 106H235.266ZM227.83 106.316C226.154 106.316 224.818 105.924 223.822 105.139C222.826 104.354 222.328 103.305 222.328 101.992C222.328 100.82 222.744 99.7539 223.576 98.793C224.408 97.832 225.65 97.082 227.303 96.543L228.357 97.2812C227.314 97.75 226.518 98.3418 225.967 99.0566C225.416 99.7715 225.141 100.627 225.141 101.623C225.141 102.596 225.404 103.346 225.932 103.873C226.471 104.4 227.232 104.664 228.217 104.664C229.096 104.664 229.898 104.436 230.625 103.979C231.352 103.521 232.09 102.777 232.84 101.746L234.141 102.871C233.391 104.031 232.494 104.898 231.451 105.473C230.408 106.035 229.201 106.316 227.83 106.316ZM233.93 103.188L232.629 102.115L235.67 97.791L235.635 98.5996L233.455 98.0898L233.543 96.9297H239.08L238.992 98.0547C238.711 98.2188 238.389 98.3535 238.025 98.459C237.674 98.5645 237.328 98.6582 236.988 98.7402L238.148 97.8789L233.93 103.188ZM248.449 105.736V88.8438H251.402V105.736H248.449ZM249.943 106V104.242H259.436L259.857 106H249.943ZM259.857 106L257.062 105.068L259.225 100.99H260.578C260.602 101.611 260.549 102.385 260.42 103.311C260.291 104.236 260.104 105.133 259.857 106ZM249.662 98.0195V96.1211H257.379L257.238 98.0195H249.662ZM248.924 90.3555V88.5977H259.664L259.33 90.3555H248.924ZM258.592 93.291L257.01 89.5996L259.664 88.5977C259.828 89.3945 259.934 90.1973 259.98 91.0059C260.027 91.8145 260.027 92.5762 259.98 93.291H258.592ZM246.48 106L246.568 104.875C247.178 104.629 247.922 104.4 248.801 104.189L248.449 105.508V103.047H251.402V105.508L251.104 104.33L253.441 104.84L253.354 106H246.48ZM253.371 88.5977L253.283 89.7227C252.674 89.9688 251.93 90.1973 251.051 90.4082L251.402 89.0898V91.5508H248.449V89.0898L248.748 90.2676L246.41 89.7578L246.498 88.5977H253.371ZM272.285 105.895V97.0352C272.285 95.4297 271.512 94.627 269.965 94.627C268.746 94.627 267.516 95.1191 266.273 96.1035L265.922 95.2246C266.637 94.3809 267.457 93.7305 268.383 93.2734C269.309 92.8164 270.281 92.5879 271.301 92.5879C272.52 92.5879 273.457 92.9277 274.113 93.6074C274.77 94.2754 275.098 95.2363 275.098 96.4902V105.895H272.285ZM264.34 105.895V94.1523L267.152 94.8906V105.895H264.34ZM262.547 106L262.635 104.945C262.975 104.781 263.314 104.646 263.654 104.541C263.994 104.436 264.334 104.342 264.674 104.26L264.34 105.561V103.152H267.152V105.561L266.871 104.4L269.016 104.91L268.928 106H262.547ZM270.809 106L270.896 104.875C271.143 104.758 271.406 104.646 271.688 104.541C271.969 104.436 272.279 104.342 272.619 104.26L272.285 105.561V103.152H275.098V105.561L274.816 104.4L276.961 104.91L276.873 106H270.809ZM264.34 97.0527V94.8027L264.762 95.5762L262.336 94.416L262.406 93.6777C262.922 93.4551 263.52 93.2617 264.199 93.0977C264.879 92.9219 265.605 92.7988 266.379 92.7285L267.047 95.5234L264.34 97.0527ZM283.553 106.211C281.186 106.211 280.002 105.01 280.002 102.607V94.1348L280.16 92.8867L280.811 89.5469H282.814V102.08C282.814 102.854 282.955 103.416 283.236 103.768C283.529 104.107 283.998 104.277 284.643 104.277C285.17 104.277 285.844 104.178 286.664 103.979L286.559 105.49C285.691 105.971 284.689 106.211 283.553 106.211ZM277.787 94.5742L277.91 93.168C278.59 93.0039 279.34 92.9102 280.16 92.8867H286.594L286.453 94.5742H277.787ZM290.109 105.895V94.6445L292.922 95.541V105.895H290.109ZM288.316 106L288.404 104.945C288.744 104.781 289.084 104.646 289.424 104.541C289.764 104.436 290.104 104.342 290.443 104.26L290.109 105.543V103.152H292.922V105.543L292.641 104.418L295.488 104.91L295.4 106H288.316ZM292.359 97.2109L292.008 96.5078C292.629 95.1602 293.285 94.1934 293.977 93.6074C294.68 93.0098 295.5 92.7109 296.438 92.7109C296.59 92.7109 296.748 92.7168 296.912 92.7285C297.088 92.7402 297.24 92.7695 297.369 92.8164L297.176 95.2422C296.988 95.2188 296.783 95.2012 296.561 95.1895C296.338 95.166 296.139 95.1543 295.963 95.1543C295.178 95.1543 294.498 95.3184 293.924 95.6465C293.35 95.9629 292.828 96.4844 292.359 97.2109ZM290.109 97.0527V94.8027L290.531 95.5762L288.105 94.416L288.176 93.6777C288.691 93.4551 289.289 93.2617 289.969 93.0977C290.648 92.9219 291.375 92.7988 292.148 92.7285L292.816 95.5234L290.109 97.0527ZM305.35 106.281C303.229 106.281 301.594 105.707 300.445 104.559C299.297 103.41 298.723 101.77 298.723 99.6367C298.723 97.4805 299.285 95.7637 300.41 94.4863C301.535 93.209 303.053 92.5703 304.963 92.5703C306.674 92.5703 307.992 93.1094 308.918 94.1875C309.844 95.2539 310.307 96.7891 310.307 98.793C310.307 98.9688 310.301 99.1445 310.289 99.3203C310.277 99.4961 310.26 99.666 310.236 99.8301L307.283 99.2676C307.283 97.4746 307.066 96.1797 306.633 95.3828C306.211 94.5859 305.52 94.1875 304.559 94.1875C302.684 94.1875 301.746 95.6699 301.746 98.6348C301.746 102.373 303.24 104.242 306.229 104.242C307.4 104.242 308.625 104.002 309.902 103.521L309.779 105.174C309.229 105.525 308.566 105.801 307.793 106C307.031 106.188 306.217 106.281 305.35 106.281ZM299.865 99.8301V98.3887H309.955L310.236 99.8301H299.865ZM318.762 106.316C316.98 106.316 315.738 105.766 315.035 104.664L315.598 103.346C316.641 104.225 317.76 104.664 318.955 104.664C320.092 104.664 320.965 104.23 321.574 103.363C322.195 102.484 322.506 101.236 322.506 99.6191C322.506 98.0137 322.201 96.7773 321.592 95.9102C320.994 95.043 320.139 94.6094 319.025 94.6094C317.959 94.6094 316.863 95.0488 315.738 95.9277L315.404 95.1719C316.857 93.4375 318.486 92.5703 320.291 92.5703C321.896 92.5703 323.168 93.1504 324.105 94.3105C325.055 95.4707 325.529 97.0352 325.529 99.0039C325.529 101.23 324.914 103.006 323.684 104.33C322.465 105.654 320.824 106.316 318.762 106.316ZM312.029 111.625L312.117 110.57C312.457 110.406 312.797 110.271 313.137 110.166C313.477 110.061 313.816 109.967 314.156 109.885L313.822 111.186V108.777H316.635V111.186L316.354 110.043L319.201 110.535L319.113 111.625H312.029ZM313.822 111.432V94.1875L316.635 94.9082V111.432H313.822ZM313.822 97.0527V94.8027L314.244 95.5762L311.818 94.416L311.889 93.6777C312.393 93.4551 312.984 93.2617 313.664 93.0977C314.355 92.9219 315.088 92.7988 315.861 92.7285L316.529 95.5234L313.822 97.0527ZM329.379 105.895V94.6445L332.191 95.541V105.895H329.379ZM327.586 106L327.674 104.945C328.014 104.781 328.354 104.646 328.693 104.541C329.033 104.436 329.373 104.342 329.713 104.26L329.379 105.543V103.152H332.191V105.543L331.91 104.418L334.758 104.91L334.67 106H327.586ZM331.629 97.2109L331.277 96.5078C331.898 95.1602 332.555 94.1934 333.246 93.6074C333.949 93.0098 334.77 92.7109 335.707 92.7109C335.859 92.7109 336.018 92.7168 336.182 92.7285C336.357 92.7402 336.51 92.7695 336.639 92.8164L336.445 95.2422C336.258 95.2188 336.053 95.2012 335.83 95.1895C335.607 95.166 335.408 95.1543 335.232 95.1543C334.447 95.1543 333.768 95.3184 333.193 95.6465C332.619 95.9629 332.098 96.4844 331.629 97.2109ZM329.379 97.0527V94.8027L329.801 95.5762L327.375 94.416L327.445 93.6777C327.961 93.4551 328.559 93.2617 329.238 93.0977C329.918 92.9219 330.645 92.7988 331.418 92.7285L332.086 95.5234L329.379 97.0527ZM344.619 106.281C342.498 106.281 340.863 105.707 339.715 104.559C338.566 103.41 337.992 101.77 337.992 99.6367C337.992 97.4805 338.555 95.7637 339.68 94.4863C340.805 93.209 342.322 92.5703 344.232 92.5703C345.943 92.5703 347.262 93.1094 348.188 94.1875C349.113 95.2539 349.576 96.7891 349.576 98.793C349.576 98.9688 349.57 99.1445 349.559 99.3203C349.547 99.4961 349.529 99.666 349.506 99.8301L346.553 99.2676C346.553 97.4746 346.336 96.1797 345.902 95.3828C345.48 94.5859 344.789 94.1875 343.828 94.1875C341.953 94.1875 341.016 95.6699 341.016 98.6348C341.016 102.373 342.51 104.242 345.498 104.242C346.67 104.242 347.895 104.002 349.172 103.521L349.049 105.174C348.498 105.525 347.836 105.801 347.062 106C346.301 106.188 345.486 106.281 344.619 106.281ZM339.135 99.8301V98.3887H349.225L349.506 99.8301H339.135ZM361.406 105.895V97.0352C361.406 95.4297 360.633 94.627 359.086 94.627C357.867 94.627 356.637 95.1191 355.395 96.1035L355.043 95.2246C355.758 94.3809 356.578 93.7305 357.504 93.2734C358.43 92.8164 359.402 92.5879 360.422 92.5879C361.641 92.5879 362.578 92.9277 363.234 93.6074C363.891 94.2754 364.219 95.2363 364.219 96.4902V105.895H361.406ZM353.461 105.895V94.1523L356.273 94.8906V105.895H353.461ZM351.668 106L351.756 104.945C352.096 104.781 352.436 104.646 352.775 104.541C353.115 104.436 353.455 104.342 353.795 104.26L353.461 105.561V103.152H356.273V105.561L355.992 104.4L358.137 104.91L358.049 106H351.668ZM359.93 106L360.018 104.875C360.264 104.758 360.527 104.646 360.809 104.541C361.09 104.436 361.4 104.342 361.74 104.26L361.406 105.561V103.152H364.219V105.561L363.938 104.4L366.082 104.91L365.994 106H359.93ZM353.461 97.0527V94.8027L353.883 95.5762L351.457 94.416L351.527 93.6777C352.043 93.4551 352.641 93.2617 353.32 93.0977C354 92.9219 354.727 92.7988 355.5 92.7285L356.168 95.5234L353.461 97.0527ZM374.537 106.281C372.416 106.281 370.781 105.707 369.633 104.559C368.484 103.41 367.91 101.77 367.91 99.6367C367.91 97.4805 368.473 95.7637 369.598 94.4863C370.723 93.209 372.24 92.5703 374.15 92.5703C375.861 92.5703 377.18 93.1094 378.105 94.1875C379.031 95.2539 379.494 96.7891 379.494 98.793C379.494 98.9688 379.488 99.1445 379.477 99.3203C379.465 99.4961 379.447 99.666 379.424 99.8301L376.471 99.2676C376.471 97.4746 376.254 96.1797 375.82 95.3828C375.398 94.5859 374.707 94.1875 373.746 94.1875C371.871 94.1875 370.934 95.6699 370.934 98.6348C370.934 102.373 372.428 104.242 375.416 104.242C376.588 104.242 377.812 104.002 379.09 103.521L378.967 105.174C378.416 105.525 377.754 105.801 376.98 106C376.219 106.188 375.404 106.281 374.537 106.281ZM369.053 99.8301V98.3887H379.143L379.424 99.8301H369.053ZM386.191 106.299C383.742 106.299 382.518 104.928 382.518 102.186V94.2227L385.33 94.416V101.623C385.33 102.561 385.5 103.24 385.84 103.662C386.191 104.084 386.742 104.295 387.492 104.295C388.699 104.295 389.953 103.773 391.254 102.73L391.588 103.521C390.018 105.373 388.219 106.299 386.191 106.299ZM382.518 96.2793V94.4688L382.939 95.1719L380.848 94.1699L380.936 93.291C381.967 92.9512 383.174 92.7637 384.557 92.7285H385.33V95.6113L382.518 96.2793ZM393.17 104.963L390.357 104.26V94.2578L393.17 94.4336V104.963ZM390.357 96.2793V94.4688L390.779 95.1895L388.529 94.1172L388.6 93.3438C389.162 93.1562 389.771 93.0098 390.428 92.9043C391.084 92.7988 391.74 92.7402 392.396 92.7285H393.17V95.5762L390.357 96.2793ZM391.131 106.053L390.533 103.768L393.17 103.012V104.928L392.783 104.225L394.928 104.84L394.84 105.859C393.879 106.012 392.643 106.076 391.131 106.053ZM398.637 105.895V94.6445L401.449 95.541V105.895H398.637ZM396.844 106L396.932 104.945C397.271 104.781 397.611 104.646 397.951 104.541C398.291 104.436 398.631 104.342 398.971 104.26L398.637 105.543V103.152H401.449V105.543L401.168 104.418L404.016 104.91L403.928 106H396.844ZM400.887 97.2109L400.535 96.5078C401.156 95.1602 401.812 94.1934 402.504 93.6074C403.207 93.0098 404.027 92.7109 404.965 92.7109C405.117 92.7109 405.275 92.7168 405.439 92.7285C405.615 92.7402 405.768 92.7695 405.896 92.8164L405.703 95.2422C405.516 95.2188 405.311 95.2012 405.088 95.1895C404.865 95.166 404.666 95.1543 404.49 95.1543C403.705 95.1543 403.025 95.3184 402.451 95.6465C401.877 95.9629 401.355 96.4844 400.887 97.2109ZM398.637 97.0527V94.8027L399.059 95.5762L396.633 94.416L396.703 93.6777C397.219 93.4551 397.816 93.2617 398.496 93.0977C399.176 92.9219 399.902 92.7988 400.676 92.7285L401.344 95.5234L398.637 97.0527ZM411.697 106.281C410.068 106.281 408.715 105.906 407.637 105.156C407.543 104.723 407.473 104.225 407.426 103.662C407.379 103.088 407.373 102.502 407.408 101.904H408.779L410.221 104.928L409.078 103.873C409.969 104.447 410.936 104.734 411.979 104.734C413.49 104.734 414.246 104.131 414.246 102.924C414.246 102.033 413.637 101.389 412.418 100.99L410.977 100.533C408.703 99.8184 407.566 98.5176 407.566 96.6309C407.566 95.4004 408 94.4219 408.867 93.6953C409.734 92.9688 410.895 92.6055 412.348 92.6055C413.66 92.6055 414.838 92.875 415.881 93.4141C416.08 94.3047 416.162 95.2832 416.127 96.3496H414.686L413.244 93.3262L414.967 94.9785C413.959 94.4277 412.992 94.1523 412.066 94.1523C410.777 94.1523 410.133 94.709 410.133 95.8223C410.133 96.7246 410.783 97.3867 412.084 97.8086L413.525 98.2656C414.662 98.6289 415.506 99.127 416.057 99.7598C416.607 100.393 416.883 101.178 416.883 102.115C416.883 103.393 416.414 104.406 415.477 105.156C414.539 105.906 413.279 106.281 411.697 106.281ZM420.645 105.895V87.8242L423.457 88.334V105.895H420.645ZM428.66 105.895V97.0352C428.66 95.4297 427.875 94.627 426.305 94.627C425.062 94.627 423.82 95.1191 422.578 96.1035L422.227 95.2246C423.715 93.4668 425.514 92.5879 427.623 92.5879C428.865 92.5879 429.814 92.9277 430.471 93.6074C431.139 94.2754 431.473 95.2363 431.473 96.4902V105.895H428.66ZM418.852 106L418.939 104.945C419.279 104.781 419.619 104.646 419.959 104.541C420.299 104.436 420.639 104.342 420.979 104.26L420.645 105.561V103.152H423.457V105.561L423.176 104.4L425.32 104.91L425.232 106H418.852ZM427.184 106L427.271 104.875C427.518 104.758 427.781 104.646 428.062 104.541C428.344 104.436 428.654 104.342 428.994 104.26L428.66 105.561V103.152H431.473V105.561L431.191 104.4L433.336 104.91L433.248 106H427.184ZM420.645 90.2852V88.0879L420.908 88.7031L418.535 87.7715L418.605 87.0684C419.707 86.6699 420.973 86.4414 422.402 86.3828H423.457V89.4062L420.645 90.2852ZM436.992 105.895V94.1348L439.805 93.8008V105.895H436.992ZM436.992 97.0527V94.8027L437.414 95.5762L434.988 94.416L435.059 93.6777C435.574 93.4551 436.172 93.2617 436.852 93.0977C437.531 92.9219 438.258 92.7988 439.031 92.7285H439.805V95.5234L436.992 97.0527ZM435.094 106L435.182 104.945C435.486 104.805 435.814 104.682 436.166 104.576C436.529 104.459 436.922 104.354 437.344 104.26L436.992 105.561V103.152H439.805V105.561L439.506 104.4L441.773 104.91L441.686 106H435.094ZM438.135 90.4609C437.561 90.4609 437.104 90.2969 436.764 89.9688C436.436 89.6406 436.271 89.1953 436.271 88.6328C436.271 88.0703 436.436 87.625 436.764 87.2969C437.104 86.9688 437.561 86.8047 438.135 86.8047C438.709 86.8047 439.16 86.9688 439.488 87.2969C439.828 87.625 439.998 88.0703 439.998 88.6328C439.998 89.1953 439.828 89.6406 439.488 89.9688C439.16 90.2969 438.709 90.4609 438.135 90.4609ZM449.93 106.316C448.148 106.316 446.906 105.766 446.203 104.664L446.766 103.346C447.809 104.225 448.928 104.664 450.123 104.664C451.26 104.664 452.133 104.23 452.742 103.363C453.363 102.484 453.674 101.236 453.674 99.6191C453.674 98.0137 453.369 96.7773 452.76 95.9102C452.162 95.043 451.307 94.6094 450.193 94.6094C449.127 94.6094 448.031 95.0488 446.906 95.9277L446.572 95.1719C448.025 93.4375 449.654 92.5703 451.459 92.5703C453.064 92.5703 454.336 93.1504 455.273 94.3105C456.223 95.4707 456.697 97.0352 456.697 99.0039C456.697 101.23 456.082 103.006 454.852 104.33C453.633 105.654 451.992 106.316 449.93 106.316ZM443.197 111.625L443.285 110.57C443.625 110.406 443.965 110.271 444.305 110.166C444.645 110.061 444.984 109.967 445.324 109.885L444.99 111.186V108.777H447.803V111.186L447.521 110.043L450.369 110.535L450.281 111.625H443.197ZM444.99 111.432V94.1875L447.803 94.9082V111.432H444.99ZM444.99 97.0527V94.8027L445.412 95.5762L442.986 94.416L443.057 93.6777C443.561 93.4551 444.152 93.2617 444.832 93.0977C445.523 92.9219 446.256 92.7988 447.029 92.7285L447.697 95.5234L444.99 97.0527Z" fill="black"/>
</svg>
